<svg viewBox="40 28 20 43" y="0" x="0" xmlns="http://www.w3.org/2000/svg" id="圖層_1" version="1.1" width="200px" height="100px">
    <path fill="#333" d="M74.3 30.4c-3.8-.3-7.3.5-10.4 2.1-.8.4-1.6.6-2.5.6H38.6c-.9 0-1.7-.2-2.5-.6-3.1-1.6-6.6-2.4-10.4-2.1-10.2.7-18.3 9.5-18.2 19.7.1 10.8 8.9 19.5 19.7 19.5 5.5 0 10.5-2.3 14.1-5.9 1.1-1.1 2.6-1.7 4.1-1.7h9.4c1.5 0 3 .6 4.1 1.7 3.6 3.7 8.5 5.9 14.1 5.9 10.8 0 19.6-8.7 19.7-19.5-.1-10.2-8.2-19-18.4-19.7z" style="fill:rgb(83, 115, 255);"></path>
    <path fill="#e0e0e0" d="M35.7 47.4h-6v-6c0-.6-.5-1.1-1.1-1.1h-2.9c-.6 0-1.1.5-1.1 1.1v6h-6c-.6 0-1.1.5-1.1 1.1v2.9c0 .6.5 1.1 1.1 1.1h6v6c0 .6.5 1.1 1.1 1.1h2.9c.6 0 1.1-.5 1.1-1.1v-6h6c.6 0 1.1-.5 1.1-1.1v-2.9c.1-.6-.4-1.1-1.1-1.1z" style="fill:rgb(255, 255, 255);animation-play-state:paused" ></path>
    <circle fill="#f8b26a" r="3.4" cy="58" cx="72.8" style="fill:rgb(35, 77, 141);animation-play-state:paused" ></circle>
    <circle fill="#77a4bd" r="3.4" cy="50" cx="80.8" style="fill:rgb(114, 221, 182);animation-play-state:paused" ></circle>
    <circle fill="#849b87" r="3.4" cy="42" cx="72.8" style="fill:rgb(235, 253, 200);animation-play-state:paused" ></circle>
    <circle fill="#f47e60" r="3.4" cy="50" cx="64.8" style="fill:rgb(37, 108, 109);animation-play-state:paused" ></circle>
</svg>
